<?xml version="1.0" encoding="UTF-8"?>
<svg width="400" height="300" version="1.1" viewBox="0 0 400 300" xmlns="http://www.w3.org/2000/svg">
  <g>
    <!-- Ground/Sand -->
    <path d="M 0,190 H 400 V 280 H 0 Z" fill="#e6d7a0"/>

    <!-- Kite in sky -->
    <path d="M 300,50 C 320,30 340,45 335,60 C 345,75 325,90 305,70 C 285,90 265,75 275,60 C 270,45 290,30 300,50 Z" fill="#f44" stroke="#000" stroke-width="1"/>
    <path d="M 300,50 L 300,70" stroke="#000" stroke-width="1"/>
    <path d="M 275,60 L 335,60" stroke="#000" stroke-width="1"/>
    
    <!-- Kite strings -->
    <path d="M 300,70 C 270,90 240,110 210,120" fill="none" stroke="#888" stroke-width="1"/>
    <path d="M 300,70 C 260,100 230,120 210,120" fill="none" stroke="#888" stroke-width="1"/>
    
    <!-- Buggy frame -->
    <path d="M 150,160 L 190,160 L 230,120 L 190,160 L 170,130 L 150,160 Z" fill="none" stroke="#000" stroke-width="2"/>
    
    <!-- Wheels -->
    <circle cx="150" cy="170" r="10" fill="#333" stroke="#000" stroke-width="1"/>
    <circle cx="190" cy="170" r="10" fill="#333" stroke="#000" stroke-width="1"/>
    <circle cx="210" cy="130" r="10" fill="#333" stroke="#000" stroke-width="1"/>
    
    <!-- Seat -->
    <rect x="170" y="150" width="20" height="5" fill="#863" stroke="#000" stroke-width="1"/>
    
    <!-- Person -->
    <g transform="translate(180, 150)">
      <!-- Body -->
      <line x1="0" y1="0" x2="0" y2="-25" stroke="#000" stroke-width="3" stroke-linecap="round"/>
      
      <!-- Head -->
      <circle cx="0" cy="-35" r="8" fill="#fff" stroke="#000" stroke-width="1.5"/>
      
      <!-- Arms - one stretched to hold kite control bar -->
      <line x1="0" y1="-20" x2="30" y2="-5" stroke="#000" stroke-width="2" stroke-linecap="round"/>
      <line x1="0" y1="-20" x2="-10" y2="-15" stroke="#000" stroke-width="2" stroke-linecap="round"/>
      
      <!-- Legs -->
      <line x1="0" y1="0" x2="-10" y2="10" stroke="#000" stroke-width="3" stroke-linecap="round"/>
      <line x1="0" y1="0" x2="10" y2="10" stroke="#000" stroke-width="3" stroke-linecap="round"/>
    </g>
    
    <!-- Control bar for kite -->
    <rect x="210" y="118" width="20" height="3" fill="#555" stroke="#000" stroke-width="1" rx="1" ry="1"/>
    
    <!-- Motion lines -->
    <path d="M 240,160 L 255,160" stroke="#000" stroke-width="1"/>
    <path d="M 250,150 L 265,150" stroke="#000" stroke-width="1"/>
    <path d="M 245,170 L 260,170" stroke="#000" stroke-width="1"/>
    
    <!-- Wind effect -->
    <path d="M 350,80 C 360,78 370,82 380,80" fill="none" stroke="#88f" stroke-width="1"/>
    <path d="M 355,100 C 365,98 375,102 385,100" fill="none" stroke="#88f" stroke-width="1"/>
    <path d="M 340,120 C 350,118 360,122 370,120" fill="none" stroke="#88f" stroke-width="1"/>
  </g>
</svg>
