<?xml version="1.0" encoding="UTF-8" standalone="no"?>
<svg xmlns="http://www.w3.org/2000/svg" width="200px" height="40px" viewBox="0 0 200 40">
  <g id="ur-logo" fill="#0086CB">
    <path d="M20 5 A15 15 0 1 0 20 35 A15 15 0 1 0 20 5 Z M20 10 A10 10 0 1 1 20 30 A10 10 0 1 1 20 10 Z" />
    <path d="M45 5 h10 v30 h-10 z" />
    <path d="M65 5 h35 v8 h-12 v22 h-10 v-22 h-13 z" />
    <path d="M110 5 h10 v12 h15 v-12 h10 v30 h-10 v-10 h-15 v10 h-10 z" />
    <path d="M155 5 h35 v8 h-25 v5 h20 v8 h-20 v5 h25 v8 h-35 z" />
  </g>
</svg>